<svg width="26" height="30" fill="none" xmlns="http://www.w3.org/2000/svg"><path fill-rule="evenodd" clip-rule="evenodd" d="M19.1 0c.4 0 .8 0 1.1.3 1 .9 2.1 2.9 3 6 1 3 1.8 7.2 1.8 12.7 0 .6-.4 1-1 1h-3.5v9a1 1 0 1 1-2 0V1c0-.4.2-.8.6-1Zm1.4 18H23a39.6 39.6 0 0 0-2.5-13.5V18ZM6.5 0c.6 0 1 .4 1 1v28a1 1 0 1 1-2 0V1c0-.6.4-1 1-1Z" fill="#fff"/><path fill-rule="evenodd" clip-rule="evenodd" d="M2 0c.6 0 1 .4 1 1v5.5c0 .6.2 1.3.7 2 .5.5 1.3 1 2.8 1a1 1 0 1 1 0 2c-2 0-3.4-.7-4.3-1.8A5 5 0 0 1 1 6.5V1c0-.6.4-1 1-1Z" fill="#fff"/><path fill-rule="evenodd" clip-rule="evenodd" d="M11 0a1 1 0 0 0-1 1v5.5a3 3 0 0 1-.7 2c-.5.5-1.3 1-2.8 1a1 1 0 0 0 0 2c2 0 3.4-.7 4.3-1.8A5 5 0 0 0 12 6.5V1c0-.6-.4-1-1-1Z" fill="#fff"/></svg>